<?xml version="1.0" encoding="UTF-8" standalone="no"?>
<!DOCTYPE svg PUBLIC "-//W3C//DTD SVG 1.1//EN" "http://www.w3.org/Graphics/SVG/1.1/DTD/svg11.dtd">
<svg width="516px" height="218px" version="1.1" xmlns="http://www.w3.org/2000/svg" xmlns:xlink="http://www.w3.org/1999/xlink" xml:space="preserve" xmlns:serif="http://www.serif.com/" style="fill-rule:evenodd;clip-rule:evenodd;stroke-linejoin:round;stroke-miterlimit:2;">
    <rect id="Artboard1" x="0" y="0" width="515.378" height="217.031" style="fill:none;"/>
    <path d="M319.039,182.306C289.399,204.223 246.279,215.9 209.092,215.9C156.998,215.9 110.284,196.681 74.717,164.702C72.024,162.187 74.357,158.775 77.769,160.749C116.034,183.025 163.284,196.322 212.149,196.322C245.024,196.322 281.31,189.494 314.727,175.301C319.758,173.327 323.888,178.713 319.039,182.306Z" style="fill:rgb(106,111,114);"/>
    <path d="M331.435,168.114C327.664,163.265 306.284,165.78 296.763,167.036C293.888,167.395 293.347,164.879 296.045,163.082C313.112,151.046 340.956,154.64 344.19,158.593C347.425,162.546 343.289,190.572 327.305,203.864C324.789,205.843 322.451,204.765 323.529,202.067C327.123,193.088 335.206,173.145 331.435,168.114Z" style="fill:rgb(106,111,114);"/>
    <g>
        <path d="M297.3,78.65L297.3,66.973C297.3,65.176 298.56,64.098 300.175,64.098L352.274,64.098C353.888,64.098 355.326,65.353 355.326,66.973L355.326,76.853C355.326,78.468 353.888,80.624 351.378,84.218L324.43,122.666C334.487,122.483 345.086,123.921 354.071,128.952C356.045,130.03 356.586,131.827 356.763,133.442L356.763,145.838C356.763,147.635 354.967,149.608 352.993,148.536C337.003,140.088 315.628,139.192 298.019,148.713C296.222,149.608 294.248,147.817 294.248,146.02L294.248,134.161C294.248,132.364 294.248,129.129 296.222,126.254L327.482,81.525L300.357,81.525C298.737,81.525 297.3,80.265 297.3,78.65ZM107.414,151.046L91.602,151.046C90.164,150.869 88.909,149.791 88.727,148.353L88.727,67.15C88.727,65.536 90.164,64.275 91.784,64.275L106.513,64.275C108.133,64.275 109.211,65.536 109.388,66.973L109.388,77.572L109.748,77.572C113.519,67.332 120.888,62.483 130.586,62.483C140.467,62.483 146.753,67.332 151.065,77.572C154.842,67.332 163.644,62.483 172.982,62.483C179.633,62.483 186.815,65.176 191.31,71.463C196.336,78.291 195.258,88.171 195.258,96.973L195.258,148.353C195.258,149.968 193.826,151.228 192.206,151.228L176.576,151.228C174.961,151.046 173.701,149.791 173.701,148.353L173.701,105.239C173.701,101.822 174.06,93.202 173.342,89.968C172.086,84.577 168.675,82.963 164.003,82.963C160.227,82.963 156.097,85.478 154.482,89.608C152.862,93.739 153.045,100.567 153.045,105.239L153.045,148.353C153.045,149.968 151.607,151.228 149.987,151.228L134.18,151.228C132.565,151.046 131.305,149.791 131.305,148.353L131.305,105.239C131.305,96.254 132.743,82.78 121.602,82.78C110.284,82.78 110.644,95.718 110.644,105.239L110.644,148.353C110.467,149.791 109.206,151.046 107.414,151.046ZM400.243,62.483C423.774,62.483 436.529,82.603 436.529,108.291C436.529,133.082 422.519,152.843 400.243,152.843C377.248,152.843 364.67,132.723 364.67,107.572C364.493,82.244 377.248,62.483 400.243,62.483ZM400.243,79.187C388.565,79.187 387.847,95.176 387.847,105.056C387.847,114.937 387.664,136.14 400.06,136.14C412.279,136.14 412.998,119.072 412.998,108.65C412.998,101.822 412.638,93.562 410.659,87.093C408.862,81.343 405.269,79.187 400.243,79.187ZM466.888,151.046L451.081,151.046C449.467,150.869 448.206,149.608 448.206,148.176L448.206,66.791C448.388,65.353 449.644,64.098 451.258,64.098L465.993,64.098C467.43,64.098 468.508,65.176 468.868,66.431L468.868,78.827L469.227,78.827C473.717,67.692 479.826,62.483 490.784,62.483C497.789,62.483 504.795,64.994 509.289,72.004C513.42,78.468 513.42,89.426 513.42,97.332L513.42,148.536C513.237,149.968 511.982,151.046 510.368,151.046L494.555,151.046C493.118,150.869 491.862,149.791 491.68,148.536L491.68,104.338C491.68,95.358 492.758,82.421 481.8,82.421C478.029,82.421 474.435,84.937 472.638,88.89C470.482,93.921 470.123,98.77 470.123,104.338L470.123,148.176C469.946,149.791 468.508,151.046 466.888,151.046ZM255.8,112.244C255.8,118.353 255.982,123.562 252.93,129.129C250.414,133.624 246.461,136.317 241.972,136.317C235.862,136.317 232.269,131.645 232.269,124.817C232.269,111.348 244.305,108.832 255.8,108.832L255.8,112.244ZM271.789,150.869C270.711,151.765 269.274,151.947 268.019,151.228C262.81,146.916 261.732,144.76 258.857,140.629C250.232,149.431 243.946,152.124 232.805,152.124C219.513,152.124 209.092,143.864 209.092,127.515C209.092,114.577 216.102,105.957 225.982,101.645C234.602,97.874 246.638,97.155 255.8,96.077L255.8,94.098C255.8,90.327 256.159,85.838 253.826,82.603C251.852,79.728 248.258,78.468 245.024,78.468C238.914,78.468 233.524,81.525 232.269,87.994C231.909,89.426 231.008,90.864 229.576,90.864L214.305,89.249C213.045,88.89 211.607,87.994 211.967,86.015C215.56,67.332 232.269,61.765 247.357,61.765C255.086,61.765 265.144,63.739 271.253,69.666C278.977,76.853 278.258,86.556 278.258,96.973L278.258,121.588C278.258,128.952 281.31,132.187 284.185,136.317C285.263,137.754 285.446,139.551 284.185,140.447C280.774,143.145 275.024,148.176 271.789,150.869ZM48.31,112.244C48.31,118.353 48.487,123.562 45.435,129.129C42.92,133.624 38.967,136.317 34.477,136.317C28.368,136.317 24.774,131.645 24.774,124.817C24.774,111.348 36.81,108.832 48.31,108.832L48.31,112.244ZM64.118,150.869C63.039,151.765 61.602,151.947 60.347,151.228C55.133,146.916 54.055,144.76 51.18,140.629C42.56,149.431 36.269,152.124 25.133,152.124C11.836,152.124 1.42,143.864 1.42,127.515C1.42,114.577 8.425,105.957 18.305,101.645C26.93,97.874 38.967,97.155 48.128,96.077L48.128,94.098C48.128,90.327 48.487,85.838 46.154,82.603C44.175,79.728 40.581,78.468 37.347,78.468C31.243,78.468 25.852,81.525 24.592,87.994C24.232,89.426 23.336,90.864 21.899,90.864L6.628,89.249C5.373,88.89 3.935,87.994 4.295,86.015C7.888,67.332 24.592,61.765 39.685,61.765C47.409,61.765 57.472,63.739 63.576,69.666C71.305,76.853 70.586,86.556 70.586,96.973L70.586,121.588C70.586,128.952 73.638,132.187 76.513,136.317C77.592,137.754 77.769,139.551 76.513,140.447C73.097,143.145 67.352,148.176 64.118,150.869Z" style="fill:rgb(106,111,114);"/>
    </g>
</svg>
