<?xml version="1.0" encoding="UTF-8" standalone="no"?>
<!DOCTYPE svg PUBLIC "-//W3C//DTD SVG 1.1//EN" "http://www.w3.org/Graphics/SVG/1.1/DTD/svg11.dtd">
<svg width="599px" height="185px" version="1.1" xmlns="http://www.w3.org/2000/svg" xmlns:xlink="http://www.w3.org/1999/xlink" xml:space="preserve" xmlns:serif="http://www.serif.com/" style="fill-rule:evenodd;clip-rule:evenodd;stroke-linejoin:round;stroke-miterlimit:2;">
    <path d="M60.224,0C40.583,0 30.115,1.313 25.526,1.313C17.891,1.313 11.13,1.094 4.359,1.094C0.656,1.094 0,1.313 0,2.839C0,5.453 0.87,5.677 10.693,5.677C16.797,5.677 20.297,7.635 20.297,24.87L20.297,125.203C20.297,128.474 19.854,128.911 10.036,128.911C5.234,128.911 3.927,129.344 3.927,131.526C3.927,133.708 5.453,133.927 7.641,133.927C14.62,133.927 19.422,133.052 28.583,133.052C38.182,133.052 47.349,135.234 56.516,135.234C86.844,135.234 107.141,123.677 107.141,99.245C107.141,80.271 94.26,72.854 84.005,67.615C79.641,65.438 75.495,64.344 75.495,63.911C75.495,63.255 80.297,60.854 84.448,58.021C91.432,53.224 100.813,45.583 100.813,30.099C100.813,14.615 88.594,0 60.219,0L60.224,0ZM434.099,0.25C432.958,0.25 425.745,3.474 410.943,4.427C407.719,4.615 406.198,4.422 406.198,6.698C406.198,8.786 408.099,9.167 411.516,9.167C420.052,9.167 421.193,9.167 421.193,21.12L421.193,125.651C421.193,129.068 417.964,128.88 410.182,128.88C405.625,128.88 405.438,130.021 405.438,131.349C405.438,132.865 405.818,133.245 410.182,133.245C412.839,133.245 422.901,132.865 429.354,132.865C432.771,132.865 436.948,133.245 439.792,133.245C446.625,133.245 447.953,133.245 447.953,131.349C447.953,129.828 448.333,128.688 438.844,128.688C435.427,128.688 434.099,126.604 434.099,110.859C434.099,105.354 435.047,90.37 435.047,18.083C435.047,12.391 435.995,5.563 435.995,3.281C435.995,1.198 435.047,0.25 434.099,0.25ZM276.526,0.438C274.818,0.438 263.62,4.609 249.958,4.609C247.87,4.609 247.49,5.37 247.49,7.266C247.49,8.599 248.25,9.172 256.026,9.172C261.151,9.172 262.672,10.875 262.672,24.344C262.672,64.375 262.099,120.531 262.099,126.031C262.099,128.88 260.391,128.88 253.943,128.88C249.385,128.88 248.438,129.828 248.438,131.349C248.438,133.052 249.578,133.245 253.943,133.245C256.599,133.245 263.62,132.865 270.078,132.865C276.151,132.865 284.875,133.245 287.724,133.245C291.896,133.245 292.849,133.245 292.849,131.349C292.849,129.828 292.089,128.88 287.724,128.88C275.958,128.88 276.339,128.88 276.339,119.964L276.339,108.01C276.339,106.302 278.995,104.974 282.031,103.078C285.255,100.99 287.911,99.094 288.672,99.094C289.813,99.094 297.786,111.047 305.755,120.156C313.724,129.26 315.438,134.005 318.854,134.005C321.51,134.005 327.203,133.813 329.479,133.813C331.188,133.813 333.656,134.005 335.932,134.005C340.109,134.005 341.438,133.625 341.438,132.297C341.438,130.776 339.922,129.828 335.365,129.828C328.911,129.828 322.839,120.531 316.385,112.755C303.099,96.818 299.688,93.214 299.688,91.505C299.688,90.177 311.453,81.833 320.943,72.531C326.823,66.844 333.276,58.688 333.276,56.979C333.276,56.406 332.521,56.219 331,56.219C328.724,56.219 317.714,56.786 315.245,56.786C312.969,56.786 309.365,56.219 307.469,56.219C305,56.219 304.052,56.594 304.052,58.115C304.052,59.823 305,60.203 307.844,60.203C316.193,60.203 316.766,60.583 316.766,63.62C316.766,67.599 315.057,70.828 307.656,77.844C301.583,83.536 281.839,100.99 277.094,100.99C276.526,100.99 276.339,100.422 276.339,99.661C276.339,68.74 277.474,47.49 277.474,18.656C277.474,12.583 277.854,4.609 277.854,2.146C277.854,1.01 277.474,0.438 276.526,0.438ZM53.672,5.234C73.531,5.234 82.693,26.177 82.693,37.083C82.693,54.313 75.495,58.458 69.167,63.26C69.167,63.26 60,61.948 46.693,61.948C41.453,61.948 38.615,62.38 38.615,58.891L38.615,11.563C38.615,7.203 39.271,5.24 53.672,5.24L53.672,5.234ZM149.365,54.318C132.094,54.318 114.063,70.255 114.063,97.005C114.063,128.688 137.219,136.281 152.781,136.281C168.156,136.281 184.286,124.323 184.286,123.375C184.286,122.995 183.719,121.859 182.766,121.859C181.63,121.859 174.797,126.417 162.271,126.417C147.844,126.417 127.536,119.396 127.536,93.214C127.536,88.849 128.109,87.901 131.146,87.714C152.781,86.385 171.76,82.214 176.693,81.073C181.823,79.932 184.479,79.172 184.479,78.417C184.479,76.896 181.438,72.344 178.208,68.552C171.38,60.583 159.234,54.323 149.365,54.323L149.365,54.318ZM370.667,54.318C353.401,54.318 335.365,70.255 335.365,97.005C335.365,128.688 358.521,136.281 374.083,136.281C389.458,136.281 405.589,124.323 405.589,123.375C405.589,122.995 405.021,121.859 404.073,121.859C402.932,121.859 396.099,126.417 383.573,126.417C369.151,126.417 348.844,119.396 348.844,93.214C348.844,88.849 349.411,87.901 352.448,87.714C374.083,86.385 393.063,82.214 398,81.073C403.125,79.932 405.781,79.172 405.781,78.417C405.781,76.896 402.745,72.344 399.516,68.552C392.682,60.583 380.536,54.323 370.667,54.323L370.667,54.318ZM480.141,54.318C462.87,54.318 444.839,70.255 444.839,97.005C444.839,128.688 467.99,136.281 483.557,136.281C498.927,136.281 515.063,124.323 515.063,123.375C515.063,122.995 514.49,121.859 513.542,121.859C512.406,121.859 505.573,126.417 493.047,126.417C478.62,126.417 458.313,119.396 458.313,93.214C458.313,88.849 458.885,87.901 461.922,87.714C483.557,86.385 502.536,82.214 507.469,81.073C512.594,79.932 515.25,79.172 515.25,78.417C515.25,76.896 512.219,72.344 508.99,68.552C502.156,60.583 490.01,54.323 480.141,54.323L480.141,54.318ZM215.411,55.646C212.375,55.646 208.766,56.594 205.729,56.594C201.932,56.594 198.328,56.214 191.875,56.214C188.646,56.214 188.839,56.786 188.839,59.063C188.839,61.151 188.839,60.958 192.255,60.958C202.885,60.958 202.505,61.339 202.505,74.24L202.505,126.224C202.505,128.88 201.932,129.068 194.156,129.068C189.599,129.068 189.406,129.448 189.406,131.344C189.406,133.245 189.786,133.245 194.156,133.245C196.813,133.245 203.266,132.297 209.719,132.297C215.792,132.297 228.505,133.245 231.161,133.245C236.099,133.245 236.286,133.432 236.286,131.344C236.286,129.635 236.099,129.068 231.161,129.068C217.12,129.068 216.552,129.068 216.552,119.771L216.552,80.688C216.552,72.719 220.724,68.167 231.729,68.167C241.224,68.167 243.5,75.948 246.156,75.948C247.297,75.948 250.333,67.599 250.333,65.703C250.333,60.771 241.604,56.594 238.182,56.594C229.266,56.594 220.349,66.458 217.5,66.458C216.74,66.458 216.552,65.13 216.552,63.427C216.552,62.854 216.932,58.682 216.932,57.734C216.932,56.214 216.172,55.646 215.411,55.646ZM594.375,55.833C591.719,55.833 586.594,56.594 583.75,56.594C578.62,56.594 575.208,56.214 570.083,56.214C566.667,56.214 566.099,56.214 566.099,58.682C566.099,60.578 566.859,60.583 572.74,60.583C579.193,60.583 579.193,61.719 579.193,67.411C579.193,70.063 572.359,89.797 567.807,103.458C564.771,112.375 563.63,115.031 562.302,115.031C561.542,115.031 559.266,111.807 557.745,107.823C546.359,78.604 541.422,71.964 541.422,66.458C541.422,62.099 542.563,60.958 547.115,60.958C551.099,60.958 551.859,60.771 551.859,59.063C551.859,56.974 551.099,56.214 547.115,56.214C541.042,56.214 534.401,56.781 529.083,56.781C524.531,56.781 523.203,56.406 517.891,56.406C514.474,56.406 513.906,57.354 513.906,59.063C513.906,60.771 514.094,60.958 517.891,60.958C521.307,60.958 522.635,61.911 527.38,73.292C537.818,97.953 553,133.052 553,135.141C553,140.828 536.682,163.214 529.849,171.75C523.396,179.911 514.474,181.047 514.474,182.188C514.474,183.135 516.37,184.083 519.599,184.083C523.771,184.083 525.099,182.568 530.792,181.807C534.974,181.24 537.25,181.047 539.339,176.875C545.406,164.354 553.953,148.984 565.906,119.958C580.901,83.536 589.255,60.771 593.427,60.771C595.708,60.771 598.359,59.818 598.359,58.115C598.359,56.026 597.411,55.833 594.375,55.833ZM147.469,58.302C156.198,58.302 167.396,72.339 167.396,77.083C167.396,78.224 167.208,78.604 165.12,78.979C150.885,81.255 140.635,83.729 130.766,83.729C128.484,83.729 128.49,83.536 128.49,82.589C128.49,79.927 133.042,58.302 147.469,58.302ZM368.766,58.302C377.5,58.302 388.698,72.339 388.698,77.083C388.698,78.224 388.505,78.604 386.417,78.979C372.182,81.255 361.938,83.729 352.068,83.729C349.792,83.729 349.792,83.536 349.792,82.589C349.792,79.927 354.344,58.302 368.766,58.302ZM478.24,58.302C486.969,58.302 498.167,72.339 498.167,77.083C498.167,78.224 497.979,78.604 495.891,78.979C481.656,81.255 471.406,83.729 461.536,83.729C459.26,83.729 459.26,83.536 459.26,82.589C459.26,79.927 463.813,58.302 478.24,58.302ZM46.49,66.089C70.271,66.089 86.417,81.359 86.417,100.99C86.417,119.964 74.198,131.313 57.615,131.313C50.63,131.313 43.651,129.781 41.25,127.161C39.286,124.979 38.63,112.771 38.63,110.802L38.63,71.76C38.63,66.958 40.38,66.089 46.49,66.089ZM154.693,155.13C150.208,155.13 146.469,157.833 146.469,162.313C146.469,170.828 157.693,169.307 157.693,174.047C157.693,175.938 156.245,177.568 153.323,177.568C151.359,177.568 148.875,176.641 146.802,175.234L144.953,178.495C147.026,179.938 149.839,181.307 153.323,181.307C158.172,181.307 162.214,178.193 162.214,173.901C162.214,165.271 150.99,167.87 150.99,162.125C150.99,160.24 152.25,158.87 154.693,158.87C156.88,158.87 158.578,159.609 160.469,160.573L162.063,157.391C159.917,156.057 157.359,155.13 154.693,155.13ZM244.161,155.13C236.531,155.13 233.125,160.573 233.125,168.198C233.125,175.458 236.495,181.307 244.161,181.307C251.828,181.307 255.203,175.458 255.203,168.198C255.203,160.573 251.792,155.13 244.161,155.13ZM303.641,155.13C296.01,155.13 292.266,160.609 292.266,168.24C292.266,176.01 295.677,181.307 303.49,181.307C306.901,181.307 310.083,179.901 312.677,177.531L310.417,174.646C308.344,176.531 305.974,177.568 303.714,177.568C299.01,177.568 296.786,174.198 296.786,168.203C296.786,162.24 299.156,158.87 303.641,158.87C306.047,158.87 307.823,159.724 309.786,161.349L312.083,158.391C309.417,156.203 306.786,155.13 303.641,155.13ZM400.073,155.13C392.443,155.13 389.036,160.573 389.036,168.198C389.036,175.458 392.406,181.307 400.073,181.307C407.74,181.307 411.109,175.458 411.109,168.198C411.109,160.573 407.703,155.13 400.073,155.13ZM45.641,155.5L41.38,155.948L41.38,180.901L45.786,180.901L45.786,163.87L45.859,163.87L56.562,180.901L60.49,180.901L60.49,155.536L56.083,155.536L56.083,172.203L55.974,172.203L45.641,155.5ZM102.188,155.5L102.188,180.901L117.594,180.901L117.927,177.161L106.594,177.161L106.594,169.979L116.115,169.979L116.115,166.24L106.594,166.24L106.594,159.24L117.297,159.24L117.297,155.5L102.188,155.5ZM260.87,155.5L260.87,180.901L265.276,180.901L265.276,169.979L274.615,169.979L274.615,166.24L265.276,166.24L265.276,159.24L275.688,159.24L275.688,155.5L260.87,155.5ZM329.016,155.5L323.87,155.906L314.938,180.901L319.052,180.901L321.161,174.792L331.385,174.792L333.495,180.901L338.016,180.901L329.016,155.5ZM371.38,155.5L371.38,180.901L375.786,180.901L375.786,169.979L385.12,169.979L385.12,166.24L375.786,166.24L375.786,159.24L386.193,159.24L386.193,155.5L371.38,155.5ZM440.781,155.5L436.521,155.948L436.521,180.901L440.927,180.901L440.927,163.87L441,163.87L451.703,180.901L455.63,180.901L455.63,155.536L451.224,155.536L451.224,172.203L451.109,172.203L440.781,155.5ZM483.255,155.5L478.104,155.906L469.177,180.901L473.286,180.901L475.401,174.792L485.62,174.792L487.734,180.901L492.255,180.901L483.255,155.5ZM16.479,155.536L16.479,172.089C16.479,177.792 19.625,181.307 25.849,181.307C32.031,181.307 35.182,177.792 35.182,172.052L35.182,155.536L30.776,155.536L30.776,172.349C30.776,175.495 29.443,177.568 25.849,177.568C22.219,177.568 20.885,175.495 20.885,172.307L20.885,155.536L16.479,155.536ZM66.771,155.536L66.771,180.901L71.177,180.901L71.177,155.536L66.771,155.536ZM75.51,155.536L84.25,180.901L89.099,180.901L97.88,155.536L93.542,155.536L88.693,169.719C88.693,169.719 88.214,171.161 86.953,175.495L86.729,175.495C85.505,171.161 85.026,169.682 85.026,169.682L80.177,155.536L75.51,155.536ZM123.76,155.536L123.76,180.901L128.167,180.901L128.167,170.755L130.281,170.755C131.875,170.755 132.797,172.24 133.542,173.755L137.057,180.901L141.911,180.901L137.057,171.755C136.76,171.161 136.318,170.495 135.5,170.01L135.5,169.943C138.833,168.682 140.281,166.089 140.281,163.057C140.281,158.651 137.5,155.536 131.906,155.536L123.76,155.536ZM167.458,155.536L167.458,180.901L171.865,180.901L171.865,155.536L167.458,155.536ZM176.938,155.536L176.938,159.313L183.646,159.313L183.646,180.901L188.052,180.901L188.052,159.276L194.458,159.276L194.792,155.536L176.938,155.536ZM197.677,155.536L205.677,170.052L205.677,180.901L210.083,180.901L210.083,170.052L218.089,155.536L213.234,155.536L209.641,162.76C209.641,162.76 209.198,163.682 207.938,166.5L207.828,166.5C206.495,163.682 206.01,162.76 206.01,162.76L202.641,155.536L197.677,155.536ZM341.589,155.536L341.589,180.901L356.589,180.901L356.922,177.161L345.995,177.161L345.995,155.536L341.589,155.536ZM361.214,155.536L361.214,180.901L365.62,180.901L365.62,155.536L361.214,155.536ZM414.911,155.536L414.911,180.901L419.318,180.901L419.318,170.755L421.432,170.755C423.021,170.755 423.953,172.24 424.693,173.755L428.208,180.901L433.063,180.901L428.208,171.755C427.917,171.161 427.469,170.495 426.656,170.01L426.656,169.943C429.99,168.682 431.432,166.089 431.432,163.057C431.432,158.651 428.656,155.536 423.063,155.536L414.911,155.536ZM461.167,155.536L461.167,180.901L465.573,180.901L465.573,155.536L461.167,155.536ZM244.156,158.87C248.526,158.87 250.635,162.682 250.635,168.198C250.635,173.719 248.495,177.568 244.156,177.568C239.786,177.568 237.641,173.714 237.641,168.161C237.641,162.646 239.786,158.87 244.156,158.87ZM400.063,158.87C404.432,158.87 406.542,162.682 406.542,168.198C406.542,173.719 404.396,177.568 400.063,177.568C395.693,177.568 393.547,173.714 393.547,168.161C393.547,162.646 395.693,158.87 400.063,158.87ZM128.167,159.313L131.797,159.313C134.797,159.313 135.76,160.724 135.76,163.094C135.76,165.5 134.542,167.052 131.87,167.052L128.167,167.052L128.167,159.313ZM419.318,159.313L422.948,159.313C425.948,159.313 426.917,160.724 426.917,163.094C426.917,165.5 425.693,167.052 423.026,167.052L419.318,167.052L419.318,159.313ZM326.182,159.979L326.255,159.979C327.995,165.24 328.292,166.052 328.292,166.052L330.255,171.641L322.219,171.641L324.182,166.052C324.182,166.052 324.479,165.24 326.182,159.979ZM480.422,159.979L480.495,159.979C482.234,165.24 482.536,166.052 482.536,166.052L484.495,171.641L476.458,171.641L478.422,166.052C478.422,166.052 478.719,165.24 480.422,159.979Z" style="fill:rgb(106,111,114);fill-rule:nonzero;"/>
</svg>
