<?xml version="1.0" encoding="UTF-8" standalone="no"?>
<!DOCTYPE svg PUBLIC "-//W3C//DTD SVG 1.1//EN" "http://www.w3.org/Graphics/SVG/1.1/DTD/svg11.dtd">
<svg width="674px" height="131px" version="1.1" xmlns="http://www.w3.org/2000/svg" xmlns:xlink="http://www.w3.org/1999/xlink" xml:space="preserve" xmlns:serif="http://www.serif.com/" style="fill-rule:evenodd;clip-rule:evenodd;stroke-linejoin:round;stroke-miterlimit:2;">
    <g>
        <g>
            <g>
                <g>
                    <path d="M52.667,20.364C44.739,20.364 42.448,23.875 42.448,31.609L42.448,44.442L63.588,44.442L61.469,65.177L42.458,65.177L42.458,128.099L17.088,128.099L17.088,65.177L0,65.177L0,44.442L17.088,44.442L17.088,31.963C17.088,11.047 25.542,0 49.12,0C54.057,-0.011 58.995,0.281 63.901,0.88L63.901,20.39L52.667,20.364Z" style="fill:rgb(106,111,114);fill-rule:nonzero;"/>
                </g>
                <g>
                    <path d="M65.344,83.63C65.344,60.26 76.443,42.656 99.687,42.656C112.37,42.656 120.114,49.161 123.818,57.244L123.818,44.442L148.12,44.442L148.12,128.099L123.818,128.099L123.818,115.448C120.297,123.536 112.37,129.859 99.687,129.859C76.443,129.859 65.344,112.281 65.344,88.885L65.344,83.63ZM90.703,89.26C90.703,101.734 95.281,109.994 107.083,109.994C117.479,109.994 122.76,102.442 122.76,90.489L122.76,82.093C122.76,70.145 117.479,62.588 107.083,62.588C95.281,62.588 90.703,70.849 90.703,83.323L90.703,89.26Z" style="fill:rgb(106,111,114);fill-rule:nonzero;"/>
                </g>
                <g>
                    <path d="M200.958,42.682C210.812,42.682 220.151,44.797 225.255,48.302L219.625,66.234C214.338,63.724 208.568,62.401 202.713,62.364C188.974,62.364 183.005,70.276 183.005,83.812L183.005,88.729C183.005,102.27 188.989,110.177 202.713,110.177C208.568,110.14 214.338,108.817 219.625,106.307L225.255,124.229C220.151,127.744 210.818,129.859 200.958,129.859C171.187,129.859 157.63,113.864 157.63,88.203L157.63,84.338C157.63,58.677 171.187,42.682 200.958,42.682Z" style="fill:rgb(106,111,114);fill-rule:nonzero;"/>
                </g>
                <g>
                    <g>
                        <path d="M228.599,89.468L228.599,82.093C228.599,58.364 242.156,42.755 269.818,42.755C295.885,42.755 307.333,58.573 307.333,81.77L307.333,95.13L253.953,95.13C254.484,106.552 259.594,111.651 273.661,111.651C283.177,111.651 293.213,109.718 300.614,106.552L305.255,123.885C298.562,127.411 284.823,130.041 272.677,130.041C240.573,130.031 228.599,114.052 228.599,89.468ZM253.958,78.567L284.609,78.567L284.609,76.463C284.609,67.323 280.911,60.073 269.828,60.073C258.37,60.078 253.958,67.291 253.958,78.536L253.958,78.567Z" style="fill:rgb(106,111,114);fill-rule:nonzero;"/>
                    </g>
                </g>
                <g>
                    <path d="M401.338,88.911C401.338,112.281 390.073,129.885 366.849,129.885C354.167,129.885 345.364,123.557 341.838,115.468L341.838,128.125L317.891,128.125L317.891,2.437L343.255,0.14L343.255,56.031C346.948,48.656 355.052,42.672 366.854,42.672C390.104,42.672 401.349,60.25 401.349,83.651L401.338,88.911ZM375.979,83.109C375.979,71.333 371.406,62.547 359.25,62.547C348.854,62.547 343.219,69.922 343.219,81.88L343.219,90.661C343.219,102.614 348.854,109.994 359.25,109.994C371.406,109.994 375.979,101.213 375.979,89.432L375.979,83.109Z" style="fill:rgb(106,111,114);fill-rule:nonzero;"/>
                </g>
                <g>
                    <path d="M409.823,88.375L409.823,84.166C409.823,60.078 423.562,42.682 451.568,42.682C479.568,42.682 493.318,60.078 493.318,84.166L493.318,88.375C493.318,112.453 479.578,129.859 451.573,129.859C423.568,129.859 409.823,112.453 409.823,88.375ZM467.948,82.401C467.948,71.333 463.364,62.547 451.526,62.547C439.682,62.547 435.141,71.333 435.141,82.401L435.141,90.14C435.141,101.213 439.724,109.994 451.526,109.994C463.328,109.994 467.948,101.213 467.948,90.14L467.948,82.401Z" style="fill:rgb(106,111,114);fill-rule:nonzero;"/>
                </g>
                <g>
                    <path d="M501.75,88.375L501.75,84.166C501.75,60.078 515.489,42.682 543.495,42.682C571.5,42.682 585.239,60.078 585.239,84.166L585.239,88.375C585.239,112.453 571.5,129.859 543.495,129.859C515.489,129.859 501.75,112.453 501.75,88.375ZM559.88,82.401C559.88,71.333 555.297,62.547 543.495,62.547C531.693,62.547 527.12,71.333 527.12,82.401L527.12,90.14C527.12,101.213 531.693,109.994 543.495,109.994C555.297,109.994 559.88,101.213 559.88,90.14L559.88,82.401Z" style="fill:rgb(106,111,114);fill-rule:nonzero;"/>
                </g>
                <g>
                    <path d="M620.109,84.338L645.114,44.442L672.062,44.442L645.823,85.744L673.12,128.099L646.177,128.099L620.109,87.125L620.109,128.099L594.739,128.099L594.739,2.437L620.109,0.14L620.109,84.338Z" style="fill:rgb(106,111,114);fill-rule:nonzero;"/>
                </g>
            </g>
        </g>
    </g>
</svg>
