<?xml version="1.0" encoding="UTF-8" standalone="no"?>
<!DOCTYPE svg PUBLIC "-//W3C//DTD SVG 1.1//EN" "http://www.w3.org/Graphics/SVG/1.1/DTD/svg11.dtd">
<svg width="606px" height="214px" version="1.1" xmlns="http://www.w3.org/2000/svg" xmlns:xlink="http://www.w3.org/1999/xlink" xml:space="preserve" xmlns:serif="http://www.serif.com/" style="fill-rule:evenodd;clip-rule:evenodd;stroke-linejoin:round;stroke-miterlimit:2;">
    <path d="M0,0L605.646,0L605.646,213.516L0,213.516L0,0ZM6.156,107.271C6.156,53.13 139.438,9.234 303.849,9.234C468.26,9.234 601.536,53.13 601.536,107.271C601.536,161.411 468.26,205.302 303.849,205.302C139.438,205.302 6.156,161.411 6.156,107.271C6.156,107.271 6.156,161.411 6.156,107.271Z" style="fill:rgb(106,111,114);"/>
    <path d="M6.156,107.271C6.156,53.13 139.438,9.234 303.849,9.234C468.26,9.234 601.536,53.13 601.536,107.271C601.536,161.411 468.26,205.302 303.849,205.302C139.438,205.302 6.156,161.411 6.156,107.271C6.156,107.271 6.156,161.411 6.156,107.271Z" style="fill:white;"/>
    <path d="M87.432,66.854L140.344,66.854C140.344,66.854 138.932,69.073 138.932,71.849L138.932,139.969C138.932,143.672 140.521,146.818 140.521,146.818L87.255,146.818C87.255,146.818 88.844,143.667 88.844,140.521L88.844,72.401C88.844,69.813 87.432,66.854 87.432,66.854ZM166.693,67.036L217.005,67.036C217.005,67.036 215.594,69.406 215.594,71.594L215.594,96.036L233.427,73.24C233.427,73.24 234.49,71.594 234.49,69.953L234.49,67.401L285.688,67.401L263.969,97.677C263.969,97.677 262.911,98.953 262.911,99.865C262.911,100.781 263.797,102.057 263.797,102.057L291.693,146.375L230.068,146.375C230.068,146.375 231.13,144.74 231.13,143.094C231.13,141.458 230.068,139.448 230.068,139.448L215.417,115.552L215.417,141.458C215.417,143.646 217.005,146.557 217.005,146.557L166.693,146.557C166.693,146.557 168.104,144.552 168.104,142.365L168.104,71.594C168.104,69.406 166.693,67.036 166.693,67.036ZM306.677,67.589L396.682,67.589L396.682,91.766C396.682,91.766 394.74,89.974 392.276,89.974L355.385,89.974L355.385,96.599L387.505,96.599L387.505,117.906C387.505,117.906 385.391,116.12 383.094,116.12L355.036,116.12L355.036,123.458L392.802,123.458C394.917,123.458 396.156,120.057 396.156,120.057L396.156,146.557L306.677,146.557C306.677,146.557 308.271,144.229 308.271,142.62L308.271,73.5C308.271,70.63 306.677,67.589 306.677,67.589ZM436.505,66.719L508.469,66.719C508.469,66.719 507.057,70.052 507.057,71.906C507.057,73.755 508.286,77.089 508.286,77.089L537.036,146.688L483.068,146.688C483.068,146.688 484.302,144.651 483.594,142.99C482.104,139.292 480.635,135.589 479.188,131.875L456.964,131.875C456.964,131.875 452.552,141.688 452.552,143.542C452.552,145.391 453.969,146.875 453.969,146.875L409.516,146.875L437.385,74.125C437.385,74.125 438.443,72.641 438.443,70.792C438.443,68.943 436.505,66.719 436.505,66.719ZM467.016,102.26L461.724,116.516L473.365,116.516L467.016,102.26Z" style="fill:rgb(106,111,114);"/>
</svg>
