<svg version="1" xmlns="http://www.w3.org/2000/svg" width="682.667" height="682.667" viewBox="0 0 512.000000 512.000000"><path d="M191.3 48.5c-2.7 1.9-3.5 5.7-3.8 18-.2 5.5-1 12.7-1.9 16-1.1 3.6-2 11.7-2.3 20.2l-.6 14.3 7.4 12.2c5.2 8.7 7.2 13.1 7.1 15.2-.2 2 1.7 6 6.1 13.5 10.6 17.6 9.7 13.4 9.7 44.8 0 16.2-.5 30.7-1.2 34.8-1.3 8.1-1.5 13.4-.5 15.5.5 1.1-4.4 8.9-15.9 25.5-9.2 13.2-20.3 29.6-24.7 36.5-10 15.8-21.6 39.5-26.2 53.4-1.9 5.9-6 16.5-9 23.6-3 7.1-5.5 14.4-5.5 16.2 0 2.6-.9 4.3-4 7.3-2.2 2.1-4 4.7-4 5.6 0 1.6-8.1 9.9-9.7 9.9-3.6 0-14.2 2.4-16 3.5-1.2.8-5.7 2.2-10 3-16.9 3.4-33.9 8.3-46.6 13.4L37 452v24l216.8-.2 216.7-.3.3-18.5c.2-12.1-.1-19.4-.9-21.2-1.5-3.6-8.7-8.3-24-15.8-10.6-5.1-13.7-6.2-21.2-7.2-13-1.6-33.5 1.1-51.2 6.7-7.8 2.5-16.5 3.6-18.8 2.3-1.1-.6-4.7-1.4-8.1-1.8-14-1.8-18.9-4.8-23.4-14.2-2.3-4.8-4.2-27.9-4.6-56.8-.3-15.1-.4-15.8-4.5-29-6.8-21.7-8-24.7-15.6-41-8.4-18-9.9-22.2-9.1-25.6.4-1.3.2-3.2-.3-4.2-1.1-2.1 4.5-49.4 6.2-53.1 1.3-2.5 6.8-5 17.7-7.9 5.8-1.5 6.6-2.1 7.4-4.8.9-2.9 1.6-3.3 11.9-6.3 6-1.7 13.1-4.1 15.8-5.2 4.7-2.1 5.1-2.5 10.3-13.3 3-6.1 6.8-15.6 8.6-21.1 1.8-5.5 4.5-12.3 6.1-15.1 2-3.6 2.9-6.5 2.9-9.8 0-4-.5-5.1-3.5-7.8-2.5-2.3-4.5-3.3-7.2-3.4-4.5-.2-5.8.7-8.4 5.9-1.7 3.3-1.9 4.4-.9 6.8 1.7 3.9.6 8.7-4 18.5-6.1 13.2-16.9 26.1-20.8 25-.9-.3-6.6.1-12.7.8-8.7 1-12 1-16 0-7.9-1.9-18.3-2.6-20.6-1.3-1.6.8-2.4.7-3.7-.6-1-.9-2.5-2.2-3.5-2.8-1.8-1.2-1.8-1.5.3-7.6 1.2-3.5 3.1-7.1 4.2-8.1 1.7-1.4 2.2-3.1 2.6-9.8.6-10.2-.2-14.3-3.5-18.2-3.6-4.4-8-6.3-14.3-6.4-7.3 0-11.5 2.3-14 7.7-5 11.2-6.5 21.8-3.2 23.6 2.1 1.2 2.3 10.2.3 13.9l-1.2 2.2-3.7-2.9c-2-1.6-6.8-4.4-10.6-6.2-4.3-2.1-7.8-4.6-9.5-6.8-1.4-2-4.4-5.4-6.6-7.7-10.4-10.8-10.3-10.5-11.7-19.5-.7-4.6-1.3-15.2-1.2-23.4.1-15.8.7-18.8 5.3-22.9 3.1-2.8 2.3-11.6-1.2-13.8-2.2-1.4-13.1-.9-15.4.7zm63 246.7c11.8 13.9 27.1 42.7 31.1 58.5 1.4 5.4 2.5 10.7 2.5 11.8-.2 3.6 2.2 32.8 3.5 42 1 6.9 1 11.1.2 17.9l-1.1 8.9-6 1.4c-3.3.7-8.5 2.3-11.6 3.4l-5.6 2.1-10.6-3.1C236 432 217.4 428 210.3 428c-11.2 0-21.4 3.8-34.2 12.7-9.7 6.7-9.9 6.8-17.8 2.7-3.7-2-6.9-3.7-7.1-3.9-.2-.1 1.2-4 3.1-8.6 1.9-4.6 4-10.7 4.7-13.4.7-2.8 3.2-8.8 5.5-13.5 2.4-4.7 5.5-11.4 7-15 1.5-3.6 6-11.9 9.9-18.5 4-6.6 9.7-16.1 12.6-21 9.5-16 21.8-31 38.7-47.8 14.3-14 15-14.2 21.6-6.5z"/></svg>