<?xml version="1.0" encoding="UTF-8" standalone="no"?>
<!DOCTYPE svg PUBLIC "-//W3C//DTD SVG 1.1//EN" "http://www.w3.org/Graphics/SVG/1.1/DTD/svg11.dtd">
<svg width="553px" height="116px" version="1.1" xmlns="http://www.w3.org/2000/svg" xmlns:xlink="http://www.w3.org/1999/xlink" xml:space="preserve" xmlns:serif="http://www.serif.com/" style="fill-rule:evenodd;clip-rule:evenodd;stroke-linejoin:round;stroke-miterlimit:2;">
    <g>
        <clipPath id="_clip1">
            <rect x="0" y="-1.271" width="552" height="117.333"/>
        </clipPath>
        <g clip-path="url(#_clip1)">
            <path d="M89.609,0L110.839,0L110.839,67.328C110.839,102.75 88.198,115.182 55.359,115.182C22.635,115.182 0,102.75 0,67.328L0,2.698C0,0.823 0.937,0 2.812,0L24.042,0L24.042,66.271C24.042,87.5 33.427,96.297 55.359,96.297C77.411,96.297 86.792,87.5 86.792,66.271L86.792,2.698C86.792,0.823 87.729,0 89.609,0ZM329.932,18.417L329.932,46.802L383.651,46.802C384.589,46.802 384.943,47.271 384.589,48.208L378.724,62.75C378.141,64.042 377.318,64.63 375.557,64.63L344.01,64.63C333.687,64.63 329.932,67.797 329.932,74.714L329.932,94.771L402.651,94.771C403.594,94.771 403.943,95.24 403.594,96.182L397.495,111.313C396.906,112.599 396.083,113.188 394.328,113.188L314.687,113.188C308.589,113.188 306.24,111.078 306.24,106.5L306.24,7.859C306.24,2.349 309.292,0 317.266,0L402.651,0C403.594,0 403.943,0.474 403.594,1.292L397.495,16.542C396.906,17.828 396.083,18.417 394.328,18.417L329.932,18.417ZM262.49,81.87C262.49,104.505 246.542,113.188 224.141,113.188L164.792,113.188C158.573,113.188 156.344,111.078 156.344,106.5L156.344,7.859C156.344,2.349 159.276,0 167.37,0L215.578,0C236.687,0 257.099,3.641 257.099,28.74C257.099,39.531 253.224,48.677 243.958,53.484C256.745,56.885 262.49,68.38 262.49,81.87ZM179.687,47.151L217.333,47.151C229.771,47.151 233.286,42.344 233.286,32.49C233.286,22.641 229.771,17.948 217.333,17.948L179.687,17.948L179.687,47.151ZM238.682,79.76C238.682,69.323 235.047,64.161 221.677,64.161L193.88,64.161C183.557,64.161 179.687,67.328 179.687,74.245L179.687,95.24L221.677,95.24C235.047,95.24 238.682,90.083 238.682,79.76ZM550.672,113.188L529.094,113.188C527.333,113.188 526.63,112.484 525.927,111.313L503.052,70.026L482.057,70.026C471.734,70.026 467.865,73.193 467.865,80.109L467.865,113.188L447.224,113.188C445.349,113.188 444.406,112.25 444.406,110.49L444.406,7.859C444.406,2.349 447.458,0 455.432,0L503.875,0C532.141,0 549.146,7.391 549.146,34.839C549.146,56.068 538.943,64.396 526.276,67.677L551.729,111.193C552.198,111.896 552.198,113.188 550.672,113.188ZM525.339,35.307C525.339,23.813 522.172,18.182 507.391,18.182L467.865,18.182L467.865,52.432L507.391,52.432C522.172,52.432 525.339,46.917 525.339,35.307Z" style="fill:rgb(106,111,114);fill-rule:nonzero;"/>
        </g>
    </g>
</svg>
